<?xml version="1.0" encoding="UTF-8"?>
<svg version="1.1" xmlns="http://www.w3.org/2000/svg" width="1920" height="1244">
<path d="M0 0 C633.6 0 1267.2 0 1920 0 C1920 382.14 1920 764.28 1920 1158 C1854.07801861 1173.10712074 1789.20807506 1184.62570022 1721.6875 1186.56640625 C1720.58727005 1186.59835681 1720.58727005 1186.59835681 1719.46481323 1186.63095284 C1703.83168555 1187.06455205 1688.20052963 1187.06067346 1672.5625 1187.02734375 C1671.29328705 1187.02475178 1670.0240741 1187.02215981 1668.71640015 1187.01948929 C1656.82374496 1186.99315752 1644.93114892 1186.95463146 1633.03857422 1186.90405273 C1593.30600587 1186.74140012 1553.58381591 1186.87998797 1514 1190.75 C1513.12340729 1190.83303375 1512.24681458 1190.9160675 1511.34365845 1191.00161743 C1443.1710358 1197.49442735 1378.2494718 1212.59527788 1312.90136719 1232.55664062 C1281.22248776 1242.22696411 1251.10846791 1250.38843977 1219.87890625 1234.40234375 C1201.34144181 1224.03553242 1185.93175138 1207.84760608 1172 1192 C1171.50693359 1191.44103027 1171.01386719 1190.88206055 1170.50585938 1190.30615234 C1164.52563115 1183.49874878 1158.76981352 1176.54277208 1153.21240234 1169.38647461 C1150.26440528 1165.59236137 1147.26024822 1161.8517283 1144.21289062 1158.13696289 C1137.21680653 1149.60815682 1130.5460543 1140.87738623 1124 1132 C1123.17846436 1130.88818359 1123.17846436 1130.88818359 1122.34033203 1129.75390625 C1118.81575563 1124.98340969 1115.29978679 1120.20663773 1111.78662109 1115.42773438 C1110.01285994 1113.01747461 1108.23556356 1110.60986576 1106.45703125 1108.203125 C1098.02117792 1096.78393138 1089.68842352 1085.29377413 1081.39550781 1073.77050781 C1066.24020794 1052.71892106 1050.91488951 1031.88295573 1034.47509766 1011.81152344 C1033.20453365 1010.25118168 1031.95027128 1008.67759132 1030.69921875 1007.1015625 C1020.9136019 994.82807696 1009.79783121 983.70713589 998.75274658 972.57751465 C997.76809059 971.58482016 996.78491973 970.59064986 995.80340576 969.59484863 C989.21139518 962.91693296 982.3741078 956.80007353 975 951 C974.27941406 950.42548096 973.55882812 949.85096191 972.81640625 949.2590332 C937.7441832 921.45237869 897.78107982 901.55816855 852.1875 901.625 C851.18645737 901.62631424 851.18645737 901.62631424 850.16519165 901.62765503 C811.49981463 901.79315844 775.41551432 915.81047021 739.71134949 929.2297821 C723.3096524 935.39388595 706.94268483 941.4523489 690 946 C689.12375977 946.2357373 688.24751953 946.47147461 687.34472656 946.71435547 C660.59405232 953.58857344 632.30085414 951.88027505 607 941 C605.82695313 940.49726562 604.65390625 939.99453125 603.4453125 939.4765625 C588.79372626 932.66573443 576.53308355 922.16363937 565 911 C564.05382812 910.09378906 563.10765625 909.18757812 562.1328125 908.25390625 C556.75911803 903.00673921 551.86957176 897.56462388 547.1875 891.6953125 C544.28642957 888.1207793 541.20800911 884.7273738 538.109375 881.32421875 C536.25373343 879.27957665 534.43243624 877.21215851 532.625 875.125 C509.38448734 848.5644141 481.98174448 825.44511518 447 817 C445.99839844 816.75378906 444.99679687 816.50757813 443.96484375 816.25390625 C410.96069397 809.52310215 378.75342585 822.62842877 348.99365234 835.30273438 C299.97243334 856.16618949 253.1167042 873.21999901 200.5 853.3125 C184.78551569 846.67186308 170.61861441 838.2383046 157 828 C156.13084961 827.3503125 156.13084961 827.3503125 155.24414062 826.6875 C150.25289844 822.94260551 145.33327313 819.1176399 140.53125 815.1328125 C117.10115907 795.77862069 90.38452822 779.31971547 59 782 C41.00285495 784.23338065 23.60617973 796.79239893 8.734375 806.47509766 C8.02796875 806.93319824 7.3215625 807.39129883 6.59375 807.86328125 C5.97177734 808.27489502 5.34980469 808.68650879 4.70898438 809.1105957 C3 810 3 810 0 810 C0 542.7 0 275.4 0 0 Z " fill="#86C4E8" transform="translate(0,0)"/>
</svg>
