<?xml version="1.0" standalone="no"?>
<!DOCTYPE svg PUBLIC "-//W3C//DTD SVG 20010904//EN"
 "http://www.w3.org/TR/2001/REC-SVG-20010904/DTD/svg10.dtd">
<svg version="1.0" xmlns="http://www.w3.org/2000/svg"
 width="1650.000000pt" height="1275.000000pt" viewBox="0 0 1650.000000 1275.000000"
 preserveAspectRatio="xMidYMid meet">

<g transform="translate(0.000000,1275.000000) scale(0.100000,-0.100000)"
fill="#000000" stroke="none">
<path d="M500 6375 l0 -5875 7750 0 7750 0 0 5875 0 5875 -7750 0 -7750 0 0
-5875z m15490 0 l0 -5865 -7740 0 -7740 0 0 5865 0 5865 7740 0 7740 0 0
-5865z"/>
<path d="M530 6375 l0 -5845 7720 0 7720 0 0 5845 0 5845 -7720 0 -7720 0 0
-5845z m15380 0 l0 -5785 -7660 0 -7660 0 0 5785 0 5785 7660 0 7660 0 0
-5785z"/>
<path d="M7450 11919 c-106 -42 -149 -209 -85 -327 65 -119 213 -122 282 -5
24 42 28 58 28 128 0 70 -4 86 -28 128 -43 72 -126 104 -197 76z m114 -102
c30 -40 30 -164 0 -204 -23 -31 -43 -38 -80 -29 -40 10 -56 58 -52 148 3 70 6
82 27 99 34 27 79 21 105 -14z"/>
<path d="M9970 11919 c-106 -42 -149 -209 -85 -327 65 -119 213 -122 282 -5
24 42 28 58 28 128 0 67 -4 88 -25 125 -40 72 -129 107 -200 79z m114 -102
c16 -22 20 -43 20 -102 0 -59 -4 -80 -20 -102 -26 -35 -71 -41 -105 -14 -22
18 -24 26 -24 116 0 90 2 98 24 116 34 27 79 21 105 -14z"/>
<path d="M10824 11910 c-75 -38 -94 -127 -38 -184 15 -14 51 -30 92 -41 36 -9
72 -21 79 -27 19 -16 16 -56 -6 -68 -46 -24 -131 -1 -131 36 0 11 -9 13 -42 8
-24 -4 -44 -8 -46 -9 -7 -6 27 -61 50 -82 34 -31 97 -47 154 -38 69 10 124 65
124 124 0 50 -20 92 -52 109 -12 7 -52 20 -87 30 -70 19 -93 40 -72 66 20 23
84 21 106 -4 15 -16 26 -19 54 -14 20 4 37 8 39 9 2 2 -4 17 -13 35 -19 37
-82 69 -135 70 -19 0 -53 -9 -76 -20z"/>
<path d="M4994 11907 c-2 -7 -3 -98 -2 -202 l3 -190 43 -3 42 -3 0 80 0 81 43
0 43 0 29 -80 29 -80 43 0 c24 0 43 3 43 8 0 4 -14 43 -31 87 -30 78 -30 80
-11 95 71 58 49 186 -35 209 -56 16 -232 14 -239 -2z m214 -79 c7 -7 12 -21
12 -33 0 -34 -20 -45 -82 -45 l-58 0 0 45 0 45 58 0 c32 0 63 -5 70 -12z"/>
<path d="M5370 11765 c0 -213 17 -249 126 -261 57 -6 106 15 138 59 19 26 21
42 21 190 l0 162 -35 0 -35 0 -3 -155 c-3 -169 -6 -180 -63 -180 -54 0 -59 16
-59 186 l0 154 -45 0 -45 0 0 -155z"/>
<path d="M5710 11715 l0 -205 88 0 c132 1 184 25 225 105 40 77 20 203 -40
257 -38 34 -90 48 -183 48 l-90 0 0 -205z m191 115 c28 -16 49 -63 49 -115 0
-52 -21 -99 -49 -115 -11 -5 -38 -10 -60 -10 l-41 0 0 125 0 125 41 0 c22 0
49 -5 60 -10z"/>
<path d="M6105 11908 c-3 -7 -4 -99 -3 -203 l3 -190 43 -3 42 -3 0 80 0 81 43
0 43 0 29 -80 29 -80 43 0 c24 0 43 3 43 8 0 4 -14 43 -31 87 -30 78 -30 80
-11 95 60 49 56 155 -7 197 -35 24 -258 33 -266 11z m213 -80 c7 -7 12 -21 12
-33 0 -34 -20 -45 -82 -45 l-58 0 0 45 0 45 58 0 c32 0 63 -5 70 -12z"/>
<path d="M6501 11728 c-35 -106 -66 -199 -68 -205 -4 -9 7 -13 35 -13 39 0 41
2 54 43 l15 42 70 3 70 3 13 -46 13 -45 48 0 47 0 -67 203 -68 202 -49 3 -49
3 -64 -193z m129 13 l18 -61 -43 0 -43 0 21 65 c11 35 23 63 25 61 2 -2 12
-31 22 -65z"/>
<path d="M6974 11907 c-2 -7 -3 -98 -2 -202 l3 -190 43 -3 42 -3 0 85 0 86 65
0 65 0 0 -85 0 -85 45 0 45 0 0 205 0 205 -45 0 -45 0 0 -80 0 -80 -65 0 -65
0 0 80 0 80 -40 0 c-24 0 -43 -5 -46 -13z"/>
<path d="M7724 11907 c-2 -7 -3 -98 -2 -202 l3 -190 38 -3 37 -3 1 138 1 138
45 -137 c41 -126 47 -138 68 -138 22 0 28 12 69 138 l44 137 1 -137 1 -138 45
0 45 0 0 205 0 206 -62 -3 -62 -3 -37 -115 -36 -115 -39 118 -38 117 -58 0
c-39 0 -60 -4 -64 -13z"/>
<path d="M8194 11907 c-2 -7 -3 -98 -2 -202 l3 -190 133 -3 132 -3 0 41 0 40
-90 0 -90 0 0 45 0 45 70 0 70 0 0 40 0 40 -70 0 -70 0 0 40 0 40 90 0 90 0 0
40 0 40 -130 0 c-97 0 -132 -3 -136 -13z"/>
<path d="M8610 11880 l0 -40 50 0 50 0 2 -162 3 -163 45 0 45 0 3 163 2 162
50 0 50 0 0 40 0 40 -150 0 -150 0 0 -40z"/>
<path d="M8930 11765 c0 -213 17 -249 126 -261 57 -6 106 15 138 59 19 26 21
46 25 193 l3 165 -38 -3 -39 -3 -3 -155 c-3 -169 -6 -180 -63 -180 -54 0 -59
16 -59 186 l0 154 -45 0 -45 0 0 -155z"/>
<path d="M9274 11907 c-2 -7 -3 -98 -2 -202 l3 -190 43 -3 42 -3 0 205 0 206
-40 0 c-24 0 -43 -5 -46 -13z"/>
<path d="M9390 11880 l0 -40 50 0 50 0 2 -162 3 -163 45 0 45 0 3 163 2 162
50 0 50 0 0 40 0 40 -150 0 -150 0 0 -40z"/>
<path d="M9714 11907 c-2 -7 -3 -98 -2 -202 l3 -190 43 -3 42 -3 0 205 0 206
-40 0 c-24 0 -43 -5 -46 -13z"/>
<path d="M10244 11907 c-2 -7 -3 -98 -2 -202 l3 -190 37 -3 37 -3 3 126 3 127
73 -126 74 -126 39 0 39 0 0 205 0 205 -35 0 -34 0 -3 -121 -3 -121 -70 121
-70 121 -43 0 c-26 0 -45 -5 -48 -13z"/>
<path d="M10630 11876 c0 -26 5 -46 12 -48 9 -3 9 -12 -1 -36 -8 -18 -11 -35
-8 -39 24 -24 77 63 77 127 l0 40 -40 0 -40 0 0 -44z"/>
<path d="M2880 11096 c-308 -65 -514 -320 -513 -636 0 -113 20 -197 68 -289
128 -242 361 -367 653 -348 120 8 197 28 286 75 137 72 258 216 307 363 20 63
24 94 24 204 0 110 -4 141 -24 204 -64 195 -239 362 -436 416 -83 22 -282 28
-365 11z m303 -319 c66 -30 136 -98 169 -164 19 -41 23 -63 23 -148 0 -90 -3
-105 -28 -153 -37 -70 -97 -128 -166 -161 -48 -22 -69 -26 -146 -26 -77 1 -98
5 -146 28 -205 99 -259 370 -108 542 96 109 268 144 402 82z"/>
<path d="M11660 11096 c-308 -65 -514 -320 -513 -636 0 -113 20 -197 68 -289
128 -242 361 -367 653 -348 120 8 197 28 286 75 137 72 258 216 307 363 20 63
24 94 24 204 0 110 -4 141 -24 204 -64 195 -239 362 -436 416 -83 22 -282 28
-365 11z m303 -319 c66 -30 136 -98 169 -164 19 -41 23 -63 23 -148 0 -90 -3
-105 -28 -153 -37 -70 -97 -128 -166 -161 -48 -22 -69 -26 -146 -26 -77 1 -98
5 -146 28 -205 99 -259 370 -108 542 96 109 268 144 402 82z"/>
<path d="M14475 11097 c-197 -51 -323 -233 -301 -438 16 -156 81 -223 276
-283 194 -60 240 -92 240 -166 0 -140 -213 -158 -377 -33 -24 18 -47 33 -51
33 -13 0 -134 -231 -129 -245 8 -18 134 -81 217 -106 61 -19 98 -24 195 -24
119 0 163 9 255 48 139 60 220 197 220 373 0 188 -77 271 -329 354 -109 36
-136 48 -161 77 -17 18 -30 44 -30 57 0 53 72 106 145 106 44 0 126 -31 169
-64 l33 -25 61 118 c34 65 62 121 62 125 0 11 -119 62 -185 80 -82 22 -247 29
-310 13z"/>
<path d="M1070 10470 l0 -611 158 3 157 3 3 253 2 252 225 0 225 0 0 -255 0
-255 160 0 160 0 0 610 0 610 -160 0 -160 0 0 -235 0 -235 -225 0 c-208 0
-225 1 -225 18 0 9 -2 114 -3 232 l-2 215 -157 3 -158 3 0 -611z"/>
<path d="M4070 11073 c-1 -5 -47 -278 -104 -608 l-102 -600 154 -3 c85 -1 156
-1 158 1 2 1 26 155 54 342 28 186 52 340 53 342 2 1 66 -153 142 -343 l140
-345 63 3 64 3 137 325 c75 179 140 334 144 344 4 10 9 17 11 15 2 -2 23 -158
47 -346 l43 -343 158 0 c87 0 158 4 158 8 0 5 -40 276 -90 603 -49 326 -90
597 -90 601 0 5 -71 8 -159 8 l-159 0 -128 -319 c-71 -176 -131 -318 -135
-316 -3 2 -59 146 -125 319 l-119 316 -157 0 c-87 0 -158 -3 -158 -7z"/>
<path d="M5600 10470 l0 -610 345 0 345 0 0 130 0 130 -186 2 -186 3 0 105 -1
105 177 3 176 2 0 130 0 130 -176 2 -176 3 0 105 -1 105 187 3 186 2 0 130 0
130 -345 0 -345 0 0 -610z"/>
<path d="M6880 10950 l0 -130 130 0 130 0 0 -480 0 -480 160 0 160 0 0 480 0
480 130 0 130 0 0 130 0 130 -420 0 -420 0 0 -130z"/>
<path d="M7870 10667 c0 -447 4 -495 51 -594 88 -185 337 -279 604 -228 202
38 360 189 395 374 6 30 10 229 10 457 l0 404 -159 0 -160 0 -3 -412 c-3 -405
-3 -414 -25 -455 -72 -135 -289 -136 -368 -3 -19 33 -20 55 -25 450 l-5 415
-157 3 -158 3 0 -414z"/>
<path d="M9190 10470 l0 -610 160 0 160 0 0 610 0 610 -160 0 -160 0 0 -610z"/>
<path d="M9640 10950 l0 -130 130 0 130 0 0 -480 0 -480 160 0 160 0 0 480 0
480 130 0 130 0 0 130 0 130 -420 0 -420 0 0 -130z"/>
<path d="M10630 10470 l0 -610 160 0 160 0 0 610 0 610 -160 0 -160 0 0 -610z"/>
<path d="M12700 10470 l0 -610 161 0 160 0 -2 360 c-1 199 1 363 4 366 2 3
132 -159 288 -360 l284 -365 163 0 162 -1 0 610 0 610 -160 0 -160 0 -2 -371
-3 -371 -290 371 -290 371 -157 0 -158 0 0 -610z"/>
<path d="M940 9680 l0 -80 7075 0 7075 0 0 80 0 80 -7075 0 -7075 0 0 -80z"/>
<path d="M7695 9133 c43 -11 45 -18 45 -203 0 -185 -2 -192 -45 -203 -11 -2
32 -5 95 -5 63 0 106 3 95 5 -43 11 -45 18 -45 203 0 185 2 192 45 203 11 2
-32 5 -95 5 -63 0 -106 -3 -95 -5z"/>
<path d="M7948 9120 l32 -20 0 -167 c0 -93 -4 -173 -8 -180 -4 -7 -19 -16 -32
-22 -19 -8 -7 -10 55 -9 44 0 70 3 57 5 -45 9 -53 38 -50 191 l3 141 140 -174
c77 -96 143 -175 147 -175 4 0 9 91 10 202 l3 202 25 13 c22 11 17 13 -50 11
-41 0 -65 -3 -53 -5 38 -7 44 -25 41 -137 l-3 -106 -99 125 -99 125 -76 0 -76
0 33 -20z"/>
<path d="M5840 8060 l0 -240 75 0 75 0 0 95 0 95 80 0 80 0 0 -95 0 -95 75 0
75 0 0 240 0 240 -75 0 -75 0 0 -85 0 -85 -80 0 -80 0 0 85 0 85 -75 0 -75 0
0 -240z"/>
<path d="M6445 8158 l95 -143 0 -97 0 -98 75 0 75 0 0 103 0 102 73 110 c41
61 82 122 91 138 l18 27 -81 0 -81 0 -46 -70 c-26 -38 -50 -70 -53 -70 -3 0
-26 32 -51 70 l-45 70 -83 0 -82 0 95 -142z"/>
<path d="M6920 8059 l0 -241 153 3 c174 5 200 13 251 86 24 35 30 55 34 116 6
102 -11 169 -57 217 -48 50 -88 60 -248 60 l-133 0 0 -241z m261 102 c27 -27
29 -35 29 -106 0 -67 -3 -79 -25 -100 -18 -19 -35 -25 -70 -25 l-45 0 0 130 0
130 41 0 c31 0 47 -6 70 -29z"/>
<path d="M7430 8060 l0 -240 200 0 200 0 0 55 0 55 -125 0 -125 0 0 45 0 45
115 0 115 0 0 55 0 55 -115 0 -115 0 0 30 0 30 125 0 125 0 0 55 0 55 -200 0
-200 0 0 -240z"/>
<path d="M7920 8060 l0 -240 75 0 75 0 0 95 c0 85 2 95 18 95 25 0 52 -33 98
-118 l38 -72 156 2 155 3 9 38 10 37 86 0 86 0 10 -37 9 -38 78 -3 c72 -3 78
-1 73 15 -3 10 -43 117 -89 238 l-83 220 -81 3 c-70 2 -82 0 -88 -15 -4 -10
-40 -108 -82 -218 -41 -109 -78 -206 -82 -214 -6 -10 -19 6 -46 58 -21 39 -51
82 -66 96 -27 22 -27 24 -10 30 11 3 34 22 50 41 26 29 31 43 31 89 0 43 -5
59 -26 84 -35 43 -77 51 -251 51 l-153 0 0 -240z m268 118 c18 -18 14 -56 -7
-68 -11 -5 -40 -10 -65 -10 l-46 0 0 45 0 45 53 0 c29 0 58 -5 65 -12z m476
-65 c10 -32 20 -66 22 -75 5 -16 -2 -18 -46 -18 -39 0 -51 3 -47 13 3 7 13 41
22 75 10 34 21 62 24 62 4 0 15 -26 25 -57z"/>
<path d="M8950 8059 l0 -241 173 4 c139 3 178 7 204 21 65 35 84 130 38 186
-14 16 -34 33 -45 36 -17 5 -16 9 13 35 28 25 32 35 32 78 0 36 -6 56 -20 72
-37 42 -74 50 -240 50 l-155 0 0 -241z m254 125 c9 -4 16 -18 16 -34 0 -32
-14 -40 -76 -40 l-44 0 0 40 0 40 44 0 c24 0 51 -3 60 -6z m17 -174 c11 -6 19
-21 19 -35 0 -32 -26 -45 -89 -45 l-51 0 0 45 0 45 51 0 c28 0 59 -5 70 -10z"/>
<path d="M9595 8283 c-4 -10 -40 -106 -80 -213 -40 -107 -78 -208 -84 -223
l-11 -28 78 3 77 3 9 38 10 37 86 0 86 0 10 -37 9 -38 78 -3 c72 -3 78 -1 73
15 -3 10 -43 117 -89 238 l-83 220 -81 3 c-70 2 -82 0 -88 -15z m109 -170 c10
-32 20 -66 22 -75 5 -16 -2 -18 -46 -18 -39 0 -51 3 -47 13 3 7 13 41 22 75
10 34 21 62 24 62 4 0 15 -26 25 -57z"/>
<path d="M9990 8059 l0 -241 148 4 c171 4 208 16 256 85 24 34 30 55 34 116 6
102 -11 169 -57 217 -48 50 -88 60 -248 60 l-133 0 0 -241z m243 120 c35 -16
47 -49 47 -130 0 -61 -3 -73 -25 -94 -18 -19 -35 -25 -70 -25 l-45 0 0 130 0
130 35 0 c19 0 45 -5 58 -11z"/>
<path d="M4847 7229 c-90 -21 -160 -79 -199 -164 -19 -41 -23 -67 -23 -150 1
-124 24 -184 96 -249 61 -54 116 -71 240 -71 86 0 101 3 154 30 112 57 161
158 153 315 -5 103 -38 182 -96 230 -70 58 -216 85 -325 59z m159 -155 c52
-25 69 -64 68 -159 0 -128 -45 -183 -142 -172 -63 7 -100 46 -111 117 -27 168
63 272 185 214z"/>
<path d="M12975 7234 c-101 -26 -156 -68 -197 -152 -31 -62 -33 -73 -33 -167
1 -116 18 -165 81 -235 51 -57 106 -80 207 -87 113 -8 183 13 241 71 44 44 86
131 70 145 -5 4 -38 16 -73 26 -36 9 -70 19 -75 21 -6 2 -19 -16 -30 -41 -28
-70 -98 -95 -167 -59 -42 21 -59 68 -59 162 0 66 4 85 23 113 26 39 60 59 102
59 38 0 95 -34 102 -61 4 -15 12 -19 27 -15 11 2 49 10 84 17 73 14 76 23 33
91 -29 46 -62 73 -116 97 -31 14 -184 24 -220 15z"/>
<path d="M2350 7053 c0 -254 14 -324 77 -387 43 -44 103 -66 196 -73 158 -11
254 31 306 132 25 49 26 56 29 278 l4 227 -101 0 -101 0 0 -214 c0 -208 -1
-216 -22 -241 -28 -31 -85 -43 -128 -25 -55 23 -60 47 -60 275 l0 205 -100 0
-100 0 0 -177z"/>
<path d="M3080 6915 l0 -315 100 0 100 0 0 115 0 115 78 0 c104 0 172 21 211
65 68 78 67 211 -3 281 -46 46 -88 54 -298 54 l-188 0 0 -315z m325 160 c52
-51 19 -106 -68 -113 l-57 -4 0 71 0 71 50 0 c41 0 56 -5 75 -25z"/>
<path d="M3960 7155 l0 -75 100 0 100 0 0 -240 0 -240 95 0 95 0 0 240 0 240
100 0 100 0 0 75 0 75 -295 0 -295 0 0 -75z"/>
<path d="M5720 7079 l99 -151 -110 -164 -109 -164 109 0 109 0 62 101 63 100
38 -59 c20 -33 48 -79 61 -101 l23 -41 108 0 c59 0 107 2 107 5 0 3 -46 74
-102 157 -56 84 -101 157 -101 163 0 5 39 71 88 144 48 74 89 141 92 148 4 10
-17 13 -98 13 l-104 0 -54 -96 c-39 -70 -56 -93 -62 -83 -5 8 -30 51 -56 97
l-47 82 -107 0 -108 0 99 -151z"/>
<path d="M6930 6915 l0 -315 100 0 100 0 0 315 0 315 -100 0 -100 0 0 -315z"/>
<path d="M7270 6915 l0 -315 90 0 90 0 2 169 3 170 114 -170 115 -169 93 0 93
0 0 315 0 315 -95 0 -95 0 -2 -167 -3 -168 -114 168 -113 167 -89 0 -89 0 0
-315z"/>
<path d="M7950 7155 l0 -75 100 0 100 0 0 -240 0 -240 95 0 95 0 0 240 0 240
100 0 100 0 0 75 0 75 -295 0 -295 0 0 -75z"/>
<path d="M8620 6915 l0 -315 270 0 270 0 0 75 0 75 -170 0 -170 0 0 60 0 60
150 0 150 0 0 65 0 65 -150 0 -150 0 0 40 0 40 165 0 165 0 0 75 0 75 -265 0
-265 0 0 -315z"/>
<path d="M9270 6915 l0 -315 95 0 95 0 0 125 0 125 25 0 c36 0 62 -30 125
-147 l55 -103 108 0 c59 0 107 3 107 8 0 4 -26 55 -58 112 -43 78 -68 111 -96
130 l-38 25 32 9 c37 11 87 58 102 95 5 14 9 50 9 79 0 85 -45 144 -127 162
-21 5 -128 10 -236 10 l-198 0 0 -315z m350 165 c26 -26 26 -62 -1 -86 -15
-13 -40 -20 -90 -22 l-69 -4 0 66 0 66 70 0 c57 0 74 -4 90 -20z"/>
<path d="M10520 6914 l0 -316 223 4 c145 3 232 9 252 17 81 33 128 127 106
207 -15 51 -29 68 -82 99 -24 13 -37 25 -28 25 25 0 77 65 84 104 14 73 -35
144 -113 166 -20 5 -128 10 -239 10 l-203 0 0 -316z m350 166 c11 -11 20 -27
20 -35 0 -35 -37 -55 -105 -55 l-65 0 0 55 0 55 65 0 c52 0 69 -4 85 -20z m18
-226 c14 -10 22 -26 22 -44 0 -44 -31 -60 -117 -60 l-73 0 0 60 0 60 73 0 c49
0 80 -5 95 -16z"/>
<path d="M11460 7155 l0 -75 100 0 100 0 0 -240 0 -240 95 0 95 0 0 240 0 240
100 0 100 0 0 75 0 75 -295 0 -295 0 0 -75z"/>
<path d="M12130 6915 l0 -315 270 0 270 0 0 75 0 75 -170 0 -170 0 0 60 0 60
150 0 150 0 0 65 0 65 -150 0 -150 0 0 40 0 40 165 0 165 0 0 75 0 75 -265 0
-265 0 0 -315z"/>
<path d="M13450 6915 l0 -315 95 0 95 0 0 125 0 125 105 0 105 0 0 -125 0
-125 100 0 100 0 0 315 0 315 -100 0 -100 0 0 -115 0 -115 -105 0 -105 0 0
115 0 115 -95 0 -95 0 0 -315z"/>
<path d="M6362 6690 l-31 -90 45 0 c24 0 44 -4 44 -9 0 -13 -75 -78 -99 -86
-19 -6 -21 -11 -15 -43 4 -20 8 -38 9 -40 4 -5 61 25 107 55 49 33 82 83 117
178 50 140 57 125 -52 125 l-95 0 -30 -90z"/>
<path d="M9930 6690 l0 -90 45 0 c58 0 60 -20 5 -70 l-41 -38 17 -35 17 -36
37 19 c48 24 86 70 100 118 5 20 10 79 10 130 l0 92 -95 0 -95 0 0 -90z"/>
<path d="M11190 6690 l0 -90 95 0 95 0 0 90 0 90 -95 0 -95 0 0 -90z"/>
<path d="M3815 5604 c-115 -27 -115 -27 -76 -33 21 -4 36 -13 41 -26 9 -23
-94 -392 -115 -414 -7 -7 -28 -17 -46 -21 -22 -5 13 -8 101 -8 74 0 122 3 106
7 -56 12 -55 22 13 258 35 120 66 226 68 236 6 21 -8 21 -92 1z"/>
<path d="M5077 5602 c-22 -25 -21 -55 2 -76 26 -24 62 -17 80 15 13 24 13 29
-2 53 -21 31 -56 34 -80 8z"/>
<path d="M5690 5608 c-46 -9 -51 -12 -32 -19 12 -5 22 -15 22 -24 0 -12 -93
-341 -126 -448 -5 -16 0 -18 42 -15 l47 3 21 65 c32 99 112 220 145 220 16 0
14 -13 -19 -135 -16 -60 -30 -115 -30 -122 0 -20 30 -43 57 -43 30 0 103 70
103 98 0 12 -6 9 -24 -13 -13 -16 -27 -27 -31 -23 -4 4 7 54 24 112 35 119 38
157 15 180 -35 36 -98 1 -158 -87 -22 -31 -41 -56 -42 -54 -1 1 17 70 42 152
24 83 44 153 44 158 0 9 -30 7 -100 -5z"/>
<path d="M6110 5608 c-46 -9 -51 -12 -32 -19 12 -5 22 -14 22 -21 0 -7 -27
-105 -60 -218 -33 -112 -60 -210 -60 -216 0 -22 31 -44 61 -44 29 0 109 61
109 83 0 6 -13 -1 -28 -16 -57 -55 -56 -46 23 227 36 123 65 226 65 230 0 8
-32 6 -100 -6z"/>
<path d="M7009 5603 c-138 -46 -261 -220 -246 -349 8 -70 37 -116 92 -143 l49
-25 -70 -63 -69 -63 41 6 c24 3 73 -1 119 -10 135 -28 204 -19 276 37 58 44
62 62 7 37 -52 -24 -86 -25 -175 -4 -37 8 -85 14 -105 12 l-37 -3 25 26 c15
16 41 29 66 33 140 23 277 181 286 332 4 54 1 70 -22 108 -45 78 -134 104
-237 69z m120 -39 c39 -49 20 -195 -41 -320 -52 -108 -124 -150 -178 -106 -23
19 -25 27 -24 94 2 83 36 200 79 273 47 82 125 109 164 59z"/>
<path d="M8230 5608 c-46 -9 -51 -12 -32 -19 12 -5 22 -14 22 -21 0 -7 -27
-105 -60 -218 -33 -112 -60 -210 -60 -216 0 -22 31 -44 61 -44 29 0 109 61
109 83 0 6 -13 -1 -28 -16 -57 -55 -56 -46 23 227 36 123 65 226 65 230 0 8
-32 6 -100 -6z"/>
<path d="M8437 5602 c-22 -25 -21 -55 2 -76 26 -24 62 -17 80 15 13 24 13 29
-2 53 -21 31 -56 34 -80 8z"/>
<path d="M8765 5601 c-41 -18 -80 -57 -112 -112 -11 -18 -29 -33 -45 -36 -35
-7 -46 -43 -12 -43 13 0 24 -5 24 -10 0 -30 -93 -379 -108 -404 -22 -37 -43
-46 -40 -16 4 29 -26 49 -49 34 -28 -17 -23 -57 8 -68 68 -23 159 33 197 122
12 27 37 114 58 195 36 145 37 147 64 147 19 0 29 6 33 19 4 16 -1 21 -24 23
l-29 3 24 51 c38 83 97 124 93 67 -2 -24 2 -28 25 -28 15 -1 36 -9 47 -19 26
-24 62 -17 80 15 13 24 13 29 -2 53 -18 27 -54 35 -74 15 -8 -8 -17 -8 -31 0
-30 16 -82 13 -127 -8z"/>
<path d="M9650 5608 c-46 -9 -51 -12 -32 -19 26 -10 27 -19 6 -90 -21 -71 -23
-73 -45 -53 -29 26 -83 11 -133 -39 -59 -59 -90 -127 -94 -208 -4 -58 -1 -70
17 -88 41 -41 103 -14 144 60 l19 34 -27 -32 c-48 -59 -72 -35 -56 53 14 71
49 161 75 191 54 62 75 -20 35 -133 -12 -32 -23 -72 -25 -89 -2 -16 -6 -40 -9
-52 -6 -26 18 -53 46 -53 28 0 75 26 93 52 24 33 19 45 -7 20 -27 -26 -37 -28
-37 -7 0 12 93 342 126 448 6 20 -9 21 -96 5z"/>
<path d="M11871 5594 c-27 -35 -27 -46 5 -83 33 -39 27 -68 -21 -100 -46 -31
-38 -38 13 -12 50 25 88 70 103 122 11 35 10 43 -8 67 -28 38 -65 40 -92 6z"/>
<path d="M4472 5599 c14 -6 29 -16 32 -24 5 -13 -105 -413 -120 -437 -4 -5
-20 -16 -38 -24 -28 -12 -20 -13 94 -13 99 0 119 3 96 11 -26 9 -28 14 -23 47
2 20 14 69 26 109 l22 72 89 0 c65 0 90 -3 90 -12 0 -19 -45 -161 -59 -186 -6
-12 -26 -26 -44 -31 -24 -7 1 -9 98 -9 99 0 123 2 103 10 -21 7 -28 16 -28 35
0 14 25 111 56 217 56 192 75 231 118 239 11 2 -37 5 -109 5 -95 1 -123 -2
-105 -9 43 -17 43 -14 5 -161 l-17 -68 -95 0 c-85 0 -94 2 -89 18 51 175 67
207 109 215 12 2 -36 5 -108 5 -96 0 -123 -2 -103 -9z"/>
<path d="M10013 5540 c-12 -38 -18 -70 -16 -70 3 0 23 20 45 45 35 40 83 65
124 65 13 0 -106 -421 -126 -445 -7 -8 -27 -19 -44 -24 -22 -7 7 -9 104 -9 74
0 124 3 111 7 -49 14 -49 26 17 252 34 116 64 214 66 217 9 9 57 -9 76 -28 11
-11 20 -33 20 -50 0 -49 15 -34 33 34 9 35 17 67 17 70 0 3 -92 6 -203 6
l-204 0 -20 -70z"/>
<path d="M10985 5520 c-15 -16 -52 -42 -81 -57 -61 -32 -76 -53 -39 -53 14 0
25 -4 25 -8 0 -5 -13 -56 -30 -115 -16 -58 -31 -119 -32 -135 -5 -74 69 -84
140 -19 12 11 22 27 22 36 0 10 -8 7 -28 -12 -53 -51 -54 -37 -8 128 30 111
35 120 58 123 36 4 46 42 12 42 -28 0 -28 -3 -9 50 8 23 15 44 15 46 0 12 -20
0 -45 -26z"/>
<path d="M5030 5448 c-46 -9 -51 -12 -32 -19 28 -11 28 -23 -8 -149 -43 -155
-39 -190 24 -190 22 0 40 11 73 45 24 25 41 50 38 56 -4 5 -18 -5 -32 -22 -14
-16 -29 -27 -34 -22 -4 4 10 71 31 148 22 77 40 146 40 153 0 14 -22 14 -100
0z"/>
<path d="M5282 5439 c-50 -25 -72 -62 -72 -118 0 -31 6 -44 29 -64 l30 -25
-37 -23 c-42 -27 -54 -69 -28 -98 18 -19 12 -31 -15 -31 -10 0 -30 -10 -45
-23 -58 -50 -4 -105 113 -115 120 -9 203 37 203 114 0 49 -35 78 -121 100 -39
10 -74 24 -76 32 -9 22 27 40 72 34 52 -5 126 25 151 63 10 15 17 46 17 71 0
39 3 44 23 44 13 0 24 8 27 19 5 20 14 18 -178 37 -38 4 -60 0 -93 -17z m126
-43 c6 -76 -45 -165 -87 -151 -56 17 5 201 63 193 17 -2 22 -12 24 -42z m-58
-339 c36 -17 39 -61 5 -83 -32 -21 -116 -15 -145 11 -27 24 -25 60 3 80 24 18
90 14 137 -8z"/>
<path d="M6305 5455 c-5 -2 -30 -9 -55 -16 -40 -10 -43 -12 -22 -20 33 -13 39
-38 46 -217 7 -148 6 -166 -10 -183 -21 -23 -47 -25 -64 -4 -27 33 -80 12 -80
-32 0 -29 38 -48 76 -39 81 21 334 365 334 455 0 30 -27 61 -52 61 -17 0 -48
-31 -48 -48 0 -6 11 -23 25 -38 14 -15 25 -31 25 -36 0 -13 -45 -97 -78 -146
l-29 -42 -10 134 c-10 124 -23 177 -41 175 -4 0 -11 -2 -17 -4z"/>
<path d="M7380 5448 c-46 -9 -51 -12 -32 -19 28 -11 28 -11 -8 -144 -17 -60
-30 -124 -30 -140 0 -87 93 -67 166 35 20 28 38 50 39 48 2 -2 -2 -26 -8 -55
-8 -40 -8 -55 2 -67 26 -31 103 -10 135 36 24 34 19 44 -9 18 -46 -43 -46 -36
14 183 l29 107 -47 0 -48 0 -18 -65 c-18 -69 -58 -141 -108 -192 -58 -62 -60
-46 -12 123 19 68 35 128 35 134 0 12 -25 11 -100 -2z"/>
<path d="M7860 5442 c-75 -40 -140 -161 -140 -259 0 -102 64 -124 137 -48 24
25 43 51 43 58 0 6 -12 -3 -26 -20 -51 -66 -75 -28 -50 81 20 82 61 172 84
181 22 8 42 -20 42 -59 0 -17 -11 -62 -24 -101 -13 -38 -22 -73 -20 -76 2 -4
-1 -20 -7 -37 -30 -86 76 -97 140 -16 28 35 18 44 -14 14 -48 -45 -47 -34 19
203 l25 87 -44 0 c-36 0 -45 -4 -50 -21 -7 -21 -7 -21 -19 2 -15 31 -51 35
-96 11z"/>
<path d="M8390 5448 c-46 -9 -51 -12 -32 -19 28 -11 28 -23 -8 -149 -43 -155
-39 -190 24 -190 22 0 40 11 73 45 24 25 41 50 38 56 -4 5 -18 -5 -32 -22 -14
-16 -29 -27 -34 -22 -4 4 10 71 31 148 22 77 40 146 40 153 0 14 -22 14 -100
0z"/>
<path d="M8870 5448 c-46 -9 -51 -12 -32 -19 28 -11 28 -23 -8 -149 -43 -155
-39 -190 24 -190 22 0 40 11 73 45 24 25 41 50 38 56 -4 5 -18 -5 -32 -22 -14
-16 -29 -27 -34 -22 -4 4 10 71 31 148 22 77 40 146 40 153 0 14 -22 14 -100
0z"/>
<path d="M9163 5430 c-34 -17 -73 -46 -88 -65 -67 -88 -85 -191 -42 -240 44
-52 156 -42 232 20 33 28 29 44 -7 21 -12 -8 -42 -18 -66 -22 -55 -9 -82 13
-82 67 0 36 1 37 43 44 124 21 223 141 155 189 -34 24 -78 19 -145 -14z m74
-39 c-3 -22 -13 -51 -23 -65 -20 -26 -81 -62 -91 -52 -10 10 28 95 57 126 15
16 36 30 45 30 15 0 17 -7 12 -39z"/>
<path d="M10480 5448 c-46 -9 -51 -12 -32 -19 28 -11 28 -11 -8 -144 -17 -60
-30 -124 -30 -140 0 -87 93 -67 166 35 20 28 38 50 39 48 2 -2 -2 -26 -8 -55
-8 -40 -8 -55 2 -67 26 -31 103 -10 135 36 24 34 19 44 -9 18 -46 -43 -46 -36
14 183 l29 107 -47 0 -48 0 -18 -65 c-18 -66 -73 -164 -116 -204 -49 -46 -50
-28 -4 135 19 68 35 128 35 134 0 12 -25 11 -100 -2z"/>
<path d="M11200 5444 c-143 -62 -214 -285 -109 -340 108 -55 268 66 286 216 3
29 1 61 -6 78 -24 57 -99 77 -171 46z m84 -26 c25 -40 -50 -272 -97 -302 -12
-8 -22 -8 -34 0 -35 23 -13 153 43 266 31 60 64 74 88 36z"/>
<path d="M11505 5438 c-51 -18 -56 -22 -37 -29 28 -11 28 -19 -12 -176 l-34
-133 48 0 47 0 12 54 c14 63 71 185 95 206 16 12 19 12 27 -3 14 -23 35 -21
53 5 30 42 15 98 -25 98 -24 0 -67 -54 -102 -127 -16 -35 -30 -63 -32 -63 -2
0 8 39 21 87 13 49 24 91 24 95 0 12 -19 9 -85 -14z"/>
<path d="M12058 5431 c-49 -43 -46 -93 8 -158 63 -75 77 -100 70 -128 -15 -60
-94 -36 -125 38 -20 47 -24 42 -36 -45 -6 -46 0 -58 21 -39 5 5 31 5 62 -2 47
-10 58 -9 90 8 20 11 46 36 56 56 17 32 18 42 8 75 -6 22 -32 63 -57 91 -35
40 -46 59 -43 80 2 22 9 29 30 31 31 4 78 -38 78 -69 0 -20 20 -37 21 -17 0 7
4 33 8 58 l7 45 -83 3 c-79 2 -84 1 -115 -27z"/>
<path d="M3970 5190 c-11 -11 -20 -29 -20 -40 0 -27 35 -60 63 -60 50 0 76 70
39 103 -25 23 -58 21 -82 -3z"/>
<path d="M12280 5190 c-11 -11 -20 -29 -20 -40 0 -27 35 -60 63 -60 50 0 76
70 39 103 -25 23 -58 21 -82 -3z"/>
<path d="M2200 4662 c-35 -17 -80 -73 -80 -100 0 -9 12 -4 35 17 44 38 83 40
115 6 19 -20 22 -32 18 -73 -6 -63 -39 -111 -167 -240 -56 -56 -101 -104 -101
-107 0 -3 62 -5 138 -5 l137 0 28 71 c15 40 26 74 23 76 -2 2 -17 -10 -34 -27
-28 -28 -35 -30 -103 -30 l-73 0 60 52 c139 122 193 196 194 266 0 88 -102
139 -190 94z"/>
<path d="M2973 4661 c-47 -22 -71 -53 -79 -103 -8 -48 14 -94 78 -163 30 -33
60 -70 66 -82 33 -61 -6 -133 -71 -133 -56 0 -99 37 -121 103 -10 32 -21 55
-24 52 -4 -3 -16 -46 -28 -96 -19 -79 -19 -89 -5 -83 9 5 32 7 51 7 213 -8
214 -8 248 12 63 38 88 112 62 180 -6 15 -37 55 -69 89 -67 70 -81 93 -81 135
0 34 39 71 75 71 47 0 105 -74 105 -134 0 -54 17 -23 37 67 12 50 20 93 18 95
-1 1 -14 -2 -28 -9 -18 -8 -38 -8 -76 0 -73 15 -110 13 -158 -8z"/>
<path d="M4417 4662 c-22 -25 -21 -55 2 -76 26 -24 62 -17 80 15 13 24 13 29
-2 53 -21 31 -56 34 -80 8z"/>
<path d="M5020 4668 c-46 -9 -51 -12 -32 -19 12 -5 22 -14 22 -21 0 -7 -27
-105 -60 -218 -33 -112 -60 -210 -60 -216 0 -22 31 -44 61 -44 29 0 109 61
109 83 0 6 -13 -1 -28 -16 -57 -55 -56 -46 23 227 36 123 65 226 65 230 0 8
-32 6 -100 -6z"/>
<path d="M5593 4665 c-138 -43 -236 -157 -250 -289 -16 -158 118 -260 280
-215 39 11 136 93 124 106 -4 3 -20 -5 -35 -20 -77 -74 -193 -74 -232 -1 -36
67 -3 229 63 316 50 64 81 83 139 83 42 0 53 -4 74 -28 13 -15 27 -46 30 -68
12 -70 23 -48 50 95 6 37 6 38 -16 26 -17 -9 -33 -9 -65 -1 -56 14 -109 13
-162 -4z"/>
<path d="M8987 4662 c-22 -25 -21 -55 2 -76 26 -24 62 -17 80 15 13 24 13 29
-2 53 -21 31 -56 34 -80 8z"/>
<path d="M11263 4661 c-47 -22 -71 -53 -79 -103 -8 -48 14 -94 78 -163 30 -33
60 -70 66 -82 33 -61 -6 -133 -71 -133 -56 0 -99 37 -121 103 -10 32 -21 55
-24 52 -4 -3 -16 -46 -28 -96 -19 -79 -19 -89 -5 -83 9 5 32 7 51 7 213 -8
214 -8 248 12 63 38 88 112 62 180 -6 15 -37 55 -69 89 -67 70 -81 93 -81 135
0 34 39 71 75 71 47 0 105 -74 105 -134 0 -54 17 -23 37 67 12 50 20 93 18 95
-1 1 -14 -2 -28 -9 -18 -8 -38 -8 -76 0 -73 15 -110 13 -158 -8z"/>
<path d="M12510 4675 c-8 -2 -33 -7 -55 -10 -36 -7 -38 -8 -17 -16 26 -10 27
-19 6 -90 -21 -71 -23 -73 -45 -53 -29 26 -83 11 -133 -39 -59 -59 -90 -127
-94 -208 -4 -58 -1 -70 17 -88 41 -41 103 -14 144 60 l19 34 -27 -32 c-48 -59
-72 -35 -56 53 14 71 49 161 75 191 54 62 75 -20 35 -133 -12 -32 -23 -72 -25
-89 -2 -16 -6 -40 -9 -52 -6 -26 18 -53 46 -53 28 0 75 26 93 52 24 33 19 45
-7 20 -27 -26 -37 -28 -37 -7 0 12 93 342 126 448 5 17 -13 21 -56 12z"/>
<path d="M7891 4570 c-25 -21 -61 -46 -82 -56 -46 -20 -59 -44 -24 -44 14 0
25 -3 25 -7 0 -5 -12 -48 -26 -98 -39 -141 -43 -171 -27 -195 16 -22 53 -26
86 -9 34 18 67 51 67 68 0 10 -8 7 -28 -12 -53 -51 -54 -37 -8 128 30 111 35
120 58 123 35 4 46 42 13 42 -24 0 -24 0 -10 48 8 26 15 48 15 50 0 9 -21 -4
-59 -38z"/>
<path d="M8805 4580 c-15 -16 -52 -42 -81 -57 -61 -32 -76 -53 -39 -53 14 0
25 -3 25 -7 0 -5 -12 -48 -26 -98 -39 -141 -43 -171 -27 -195 16 -22 53 -26
86 -9 34 18 67 51 67 68 0 10 -8 7 -28 -12 -53 -51 -54 -37 -8 128 30 111 35
120 58 123 35 4 46 42 13 42 -24 0 -24 0 -10 48 17 56 17 52 7 52 -5 0 -21
-13 -37 -30z"/>
<path d="M11675 4580 c-15 -16 -52 -42 -81 -57 -61 -32 -76 -53 -39 -53 14 0
25 -3 25 -7 0 -5 -12 -48 -26 -98 -39 -141 -43 -171 -27 -195 16 -22 53 -26
86 -9 34 18 67 51 67 68 0 10 -8 7 -28 -12 -53 -51 -54 -37 -8 128 30 111 35
120 58 123 36 4 46 42 12 42 -28 0 -28 -3 -9 50 8 23 15 44 15 46 0 12 -20 0
-45 -26z"/>
<path d="M13475 4580 c-15 -16 -52 -42 -81 -57 -61 -32 -76 -53 -39 -53 14 0
25 -3 25 -7 0 -5 -12 -48 -26 -98 -39 -141 -43 -171 -27 -195 16 -22 53 -26
86 -9 34 18 67 51 67 68 0 10 -8 7 -28 -12 -53 -51 -54 -37 -8 128 30 111 35
120 58 123 35 4 46 42 13 42 -24 0 -24 0 -10 48 17 56 17 52 7 52 -5 0 -21
-13 -37 -30z"/>
<path d="M3310 4508 c-46 -9 -51 -12 -32 -19 12 -5 22 -15 22 -24 0 -18 -95
-367 -112 -408 -6 -15 -23 -34 -37 -42 -24 -13 -17 -14 79 -14 83 0 100 3 83
11 -26 13 -29 44 -12 112 11 43 11 43 39 33 70 -27 189 58 224 158 23 69 21
146 -5 179 -26 33 -60 34 -117 1 l-42 -24 6 25 c7 28 -2 29 -96 12z m171 -69
c16 -62 -29 -207 -79 -252 -23 -21 -50 -19 -65 4 -15 24 40 227 70 257 30 30
64 26 74 -9z"/>
<path d="M3773 4490 c-34 -17 -73 -46 -88 -65 -67 -88 -85 -191 -42 -240 44
-52 156 -42 232 20 33 28 29 44 -7 21 -12 -8 -42 -18 -66 -22 -55 -9 -82 13
-82 67 0 36 1 37 43 44 124 21 223 141 155 189 -34 24 -78 19 -145 -14z m74
-39 c-3 -22 -13 -51 -23 -65 -20 -26 -81 -62 -91 -52 -10 10 28 95 57 126 15
16 36 30 45 30 15 0 17 -7 12 -39z"/>
<path d="M4115 4501 c-125 -57 -196 -244 -122 -318 50 -51 161 -37 222 27 34
35 32 36 -20 10 -82 -42 -135 -15 -135 69 0 88 46 178 101 202 16 6 36 9 44 5
14 -5 13 -10 -6 -35 -17 -23 -19 -32 -10 -50 24 -45 81 -14 81 44 0 62 -73 84
-155 46z"/>
<path d="M4370 4508 c-46 -9 -51 -12 -32 -19 28 -11 28 -23 -8 -149 -43 -155
-39 -190 23 -190 33 0 107 65 107 95 0 12 -7 8 -26 -15 -15 -17 -31 -27 -35
-23 -5 5 9 72 31 148 22 77 40 146 40 152 0 15 -22 15 -100 1z"/>
<path d="M4660 4502 c-75 -40 -140 -161 -140 -259 0 -102 64 -124 137 -48 24
25 43 51 43 58 0 6 -12 -3 -26 -20 -51 -66 -75 -28 -50 81 20 82 61 172 84
181 22 8 42 -20 42 -59 0 -17 -11 -62 -24 -101 -13 -38 -22 -73 -20 -76 2 -3
-1 -21 -6 -39 -18 -63 24 -89 90 -55 30 16 74 65 65 73 -3 3 -14 -4 -25 -16
-24 -26 -40 -28 -40 -6 0 9 13 62 29 118 16 55 34 118 39 139 l10 37 -43 0
c-36 0 -45 -4 -50 -21 -7 -21 -7 -21 -19 2 -15 31 -51 35 -96 11z"/>
<path d="M5990 4504 c-19 -8 -52 -32 -73 -52 -98 -94 -116 -246 -36 -287 108
-56 268 65 286 215 3 29 1 61 -6 78 -24 57 -99 77 -171 46z m84 -26 c25 -40
-50 -272 -97 -302 -12 -8 -22 -8 -34 0 -35 23 -13 153 43 266 31 60 64 74 88
36z"/>
<path d="M6290 4508 c-46 -9 -51 -12 -32 -19 14 -5 22 -17 22 -31 0 -19 -40
-165 -76 -280 -5 -16 2 -18 44 -18 l50 0 12 53 c22 92 112 237 149 237 16 0
14 -11 -20 -137 -16 -63 -27 -122 -24 -133 7 -23 38 -34 70 -26 32 8 85 54 85
74 0 12 -5 10 -25 -8 -14 -13 -28 -21 -31 -18 -3 4 8 55 25 115 17 60 31 123
31 140 0 35 -22 63 -48 63 -27 0 -77 -35 -108 -75 -68 -87 -65 -86 -44 -15 30
100 33 98 -80 78z"/>
<path d="M6795 4501 c-54 -24 -120 -101 -141 -163 -46 -140 50 -230 181 -169
22 10 51 30 64 45 29 31 27 32 -24 6 -82 -42 -135 -15 -135 69 0 88 46 178
101 202 16 6 36 9 44 5 14 -5 13 -10 -6 -35 -17 -23 -19 -32 -10 -50 20 -37
79 -17 82 27 6 76 -65 105 -156 63z"/>
<path d="M7133 4490 c-34 -17 -73 -46 -88 -65 -67 -88 -85 -191 -42 -240 44
-52 156 -42 232 20 33 28 29 44 -7 21 -12 -8 -42 -18 -66 -22 -55 -9 -82 13
-82 67 0 36 1 37 43 44 124 21 223 141 155 189 -34 24 -78 19 -145 -14z m74
-39 c-3 -22 -13 -51 -23 -65 -20 -26 -81 -62 -91 -52 -10 10 28 95 57 126 15
16 36 30 45 30 15 0 17 -7 12 -39z"/>
<path d="M7400 4508 c-46 -9 -51 -12 -32 -19 14 -5 22 -17 22 -31 0 -19 -40
-165 -76 -280 -5 -16 2 -18 43 -18 l49 0 13 53 c24 93 114 237 150 237 17 0
14 -20 -19 -137 -17 -60 -28 -118 -25 -130 6 -25 36 -37 70 -29 32 8 85 54 85
74 0 12 -5 10 -25 -8 -14 -13 -28 -21 -31 -18 -3 4 8 55 25 115 17 60 31 123
31 140 0 35 -22 63 -49 63 -29 0 -83 -42 -121 -92 -19 -26 -36 -45 -38 -43 -2
2 3 28 12 58 25 86 27 85 -84 65z"/>
<path d="M8045 4498 c-51 -18 -56 -22 -37 -29 28 -11 28 -19 -12 -176 l-34
-133 48 0 47 0 12 54 c14 63 71 185 95 206 16 12 19 12 27 -3 14 -23 35 -21
53 5 30 42 15 98 -25 98 -24 0 -67 -54 -102 -127 -16 -35 -30 -63 -32 -63 -2
0 8 39 21 87 13 49 24 91 24 95 0 12 -19 9 -85 -14z"/>
<path d="M8410 4502 c-44 -24 -105 -103 -125 -161 -22 -66 -20 -146 5 -171 33
-33 68 -26 117 25 24 25 43 51 43 58 0 6 -12 -3 -26 -20 -51 -66 -75 -28 -50
81 20 82 61 172 84 181 22 8 42 -20 42 -59 0 -17 -11 -62 -24 -101 -13 -38
-22 -73 -20 -76 2 -3 -1 -21 -6 -39 -18 -63 24 -89 90 -55 30 16 74 65 65 73
-3 3 -16 -5 -30 -18 -48 -45 -47 -34 19 203 l25 87 -44 0 c-36 0 -45 -4 -50
-21 -7 -21 -7 -21 -19 2 -15 31 -51 35 -96 11z"/>
<path d="M8940 4508 c-46 -9 -51 -12 -32 -19 28 -11 28 -23 -8 -149 -43 -155
-39 -190 24 -190 22 0 40 11 73 45 24 25 41 50 38 56 -4 5 -18 -5 -32 -22 -14
-16 -30 -26 -34 -22 -5 5 9 72 31 148 22 77 40 146 40 152 0 15 -22 15 -100 1z"/>
<path d="M9240 4504 c-19 -8 -52 -32 -73 -52 -98 -94 -116 -246 -36 -287 108
-56 268 65 286 215 3 29 1 61 -6 78 -24 57 -99 77 -171 46z m84 -26 c25 -40
-49 -273 -96 -302 -13 -8 -23 -8 -35 0 -35 23 -13 153 43 266 31 60 64 74 88
36z"/>
<path d="M9550 4508 c-46 -9 -51 -12 -32 -19 14 -5 22 -17 22 -31 0 -19 -40
-165 -76 -280 -5 -16 2 -18 44 -18 l50 0 12 53 c21 91 113 237 149 237 17 0
14 -20 -19 -137 -17 -60 -28 -118 -25 -130 6 -25 36 -37 70 -29 32 8 85 54 85
74 0 12 -5 10 -25 -8 -14 -13 -28 -21 -31 -18 -3 4 8 55 25 115 17 60 31 123
31 140 0 35 -22 63 -49 63 -29 0 -83 -42 -121 -92 -19 -26 -36 -45 -38 -43 -2
2 3 28 12 58 25 86 27 85 -84 65z"/>
<path d="M10250 4504 c-45 -19 -106 -79 -131 -127 -27 -51 -35 -128 -19 -167
34 -82 154 -78 243 8 52 50 78 104 84 173 6 56 4 60 -30 94 -40 40 -85 46
-147 19z m84 -26 c25 -40 -49 -273 -96 -302 -13 -8 -23 -8 -35 0 -35 23 -13
153 43 266 31 60 64 74 88 36z"/>
<path d="M10550 4508 c-46 -9 -51 -12 -32 -19 14 -5 22 -17 22 -31 0 -19 -40
-165 -76 -280 -5 -16 2 -18 44 -18 l50 0 12 53 c21 91 113 237 149 237 17 0
14 -20 -19 -137 -17 -60 -28 -118 -25 -130 6 -25 36 -37 70 -29 32 8 85 54 85
74 0 12 -5 10 -25 -8 -14 -13 -28 -21 -31 -18 -3 4 8 55 25 115 17 60 31 123
31 140 0 35 -22 63 -49 63 -29 0 -83 -42 -121 -92 -19 -26 -36 -45 -38 -43 -2
2 3 28 12 58 25 86 27 85 -84 65z"/>
<path d="M11820 4508 c-46 -9 -51 -12 -32 -19 28 -11 28 -11 -8 -144 -17 -60
-30 -124 -30 -140 0 -87 93 -67 166 35 20 28 38 50 39 48 2 -2 -2 -26 -8 -55
-8 -40 -8 -55 2 -67 26 -31 103 -10 135 36 24 34 19 44 -9 18 -46 -43 -46 -36
14 183 l29 107 -47 0 -48 0 -18 -65 c-18 -69 -58 -141 -108 -192 -58 -61 -59
-48 -12 124 19 70 35 131 35 135 0 10 -29 8 -100 -4z"/>
<path d="M12701 4489 c-33 -17 -72 -45 -86 -63 -66 -86 -84 -192 -42 -241 44
-52 156 -42 232 20 33 28 29 44 -7 21 -12 -8 -42 -18 -66 -22 -55 -9 -82 13
-82 67 0 36 1 37 43 44 122 21 218 135 159 188 -28 26 -82 20 -151 -14z m79
-24 c0 -44 -36 -101 -75 -119 -20 -10 -39 -15 -42 -12 -10 10 28 95 57 126 35
37 60 39 60 5z"/>
<path d="M12980 4508 c-46 -9 -51 -12 -32 -19 14 -5 22 -17 22 -31 0 -19 -40
-165 -76 -280 -5 -16 2 -18 44 -18 l50 0 12 53 c22 92 112 237 149 237 17 0
14 -19 -19 -137 -17 -60 -28 -118 -25 -130 6 -25 36 -37 70 -29 32 8 85 54 85
74 0 12 -5 10 -25 -8 -14 -13 -28 -21 -31 -18 -3 4 8 55 25 115 17 60 31 123
31 140 0 35 -22 63 -49 63 -29 0 -83 -42 -121 -92 -19 -26 -36 -45 -38 -43 -2
2 3 28 12 58 25 86 27 85 -84 65z"/>
<path d="M13635 4510 c-36 -14 -60 -50 -60 -90 0 -30 9 -49 41 -87 63 -75 77
-100 70 -128 -15 -60 -94 -36 -125 38 -20 47 -24 42 -36 -45 -6 -46 0 -58 21
-39 5 5 31 5 62 -2 47 -10 58 -9 90 8 23 12 44 35 56 58 25 52 12 94 -49 164
-52 59 -60 99 -21 109 41 10 69 -15 90 -80 9 -27 14 -18 24 44 l8 55 -75 2
c-42 1 -85 -2 -96 -7z"/>
<path d="M2410 4250 c-11 -11 -20 -29 -20 -40 0 -27 35 -60 63 -60 50 0 76 70
39 103 -25 23 -58 21 -82 -3z"/>
<path d="M13830 4250 c-11 -11 -20 -29 -20 -40 0 -27 35 -60 63 -60 50 0 76
70 39 103 -25 23 -58 21 -82 -3z"/>
<path d="M4395 3175 c-194 -40 -335 -177 -380 -366 -63 -271 90 -539 342 -595
148 -33 292 1 392 91 l41 37 0 -28 c0 -51 -30 -214 -46 -252 -30 -72 -97 -122
-164 -122 -63 0 -124 52 -136 116 -6 34 -7 35 -48 29 -22 -3 -113 -14 -200
-25 -87 -11 -161 -21 -163 -23 -2 -2 15 -40 37 -84 62 -125 148 -198 285 -239
93 -29 335 -27 430 3 156 50 270 147 336 288 55 119 71 203 77 400 6 262 -28
415 -124 557 -71 104 -161 167 -290 203 -84 23 -299 29 -389 10z m287 -271
c79 -55 113 -168 88 -289 -10 -50 -20 -68 -59 -107 -38 -37 -55 -47 -95 -53
-66 -10 -123 8 -166 54 -45 47 -60 97 -60 199 0 68 4 88 28 133 53 101 170
129 264 63z"/>
<path d="M5800 3179 c-200 -35 -324 -131 -395 -304 -13 -33 -23 -61 -21 -62 2
-2 77 -17 167 -33 90 -16 176 -32 190 -35 24 -6 26 -3 38 50 20 91 82 145 166
145 89 0 145 -56 145 -145 0 -95 -79 -165 -187 -165 l-50 0 -9 -140 -9 -141
40 8 c78 15 158 9 198 -16 94 -58 115 -232 40 -330 -50 -66 -149 -88 -229 -52
-49 22 -76 58 -100 131 -9 30 -18 56 -19 57 -1 2 -88 -8 -193 -22 -105 -14
-196 -25 -202 -25 -15 0 35 -124 76 -185 66 -100 163 -166 296 -202 90 -25
367 -24 457 1 195 54 329 197 361 387 23 134 -6 237 -89 319 -51 50 -82 68
-170 96 -9 3 3 15 30 33 61 38 124 113 143 168 9 26 16 75 16 109 0 164 -109
288 -296 338 -72 20 -316 29 -394 15z"/>
<path d="M7115 3175 c-194 -40 -335 -177 -380 -366 -63 -271 90 -539 342 -595
148 -33 292 1 392 91 l41 37 0 -28 c0 -51 -30 -214 -46 -252 -30 -72 -97 -122
-164 -122 -63 0 -124 52 -136 116 -6 34 -7 35 -48 29 -22 -3 -113 -14 -200
-25 -87 -11 -161 -21 -163 -23 -2 -2 15 -40 37 -84 62 -125 148 -198 285 -239
93 -29 335 -27 430 3 156 50 270 147 336 288 55 119 71 203 77 400 6 262 -28
415 -124 557 -71 104 -161 167 -290 203 -84 23 -299 29 -389 10z m287 -271
c79 -55 113 -168 88 -289 -10 -50 -20 -68 -59 -107 -38 -37 -55 -47 -95 -53
-66 -10 -123 8 -166 54 -45 47 -60 97 -60 199 0 68 4 88 28 133 53 101 170
129 264 63z"/>
<path d="M9897 3180 c-139 -25 -253 -87 -318 -174 -116 -153 -82 -376 73 -480
l50 -34 -42 -22 c-60 -31 -128 -97 -156 -151 -70 -139 -41 -350 65 -471 100
-114 292 -168 550 -155 263 14 413 91 491 252 73 151 58 310 -42 437 -25 33
-101 91 -131 101 -7 2 16 29 50 61 89 82 118 145 118 256 0 71 -5 95 -27 142
-49 106 -156 185 -298 222 -75 20 -310 30 -383 16z m251 -267 c48 -35 72 -81
72 -137 0 -66 -26 -114 -76 -144 -32 -19 -49 -22 -98 -18 -110 8 -172 90 -152
200 8 43 49 94 91 112 42 20 129 13 163 -13z m10 -577 c60 -41 87 -97 87 -182
0 -61 -4 -77 -30 -119 -106 -170 -345 -89 -345 117 0 97 38 163 115 200 54 25
122 19 173 -16z"/>
<path d="M11305 3184 c-249 -40 -385 -162 -445 -397 -58 -232 -40 -617 38
-797 33 -77 105 -164 172 -208 85 -57 171 -82 305 -89 279 -14 465 74 555 262
94 196 114 560 46 829 -51 199 -154 318 -327 377 -49 16 -93 22 -189 24 -69 2
-138 1 -155 -1z m189 -287 c85 -48 115 -169 116 -462 0 -217 -10 -298 -46
-372 -27 -57 -65 -90 -113 -99 -89 -18 -157 34 -193 149 -21 67 -23 89 -23
332 0 285 9 343 62 414 47 62 128 78 197 38z"/>
<path d="M12605 3180 c-220 -35 -347 -146 -399 -347 -30 -116 -39 -108 137
-122 83 -7 173 -15 199 -18 l46 -5 11 53 c17 81 49 130 101 157 75 38 148 27
208 -31 72 -69 61 -173 -28 -270 -27 -29 -125 -113 -217 -185 -173 -134 -323
-276 -375 -353 -62 -92 -108 -201 -127 -301 l-8 -48 608 0 609 0 0 165 0 165
-317 0 -318 1 45 40 c25 22 108 86 185 142 236 171 344 294 380 432 61 238
-70 450 -317 511 -76 18 -338 27 -423 14z"/>
<path d="M13965 3180 c-220 -35 -347 -146 -399 -347 -30 -116 -39 -108 137
-122 83 -7 173 -15 199 -18 l46 -5 11 53 c17 81 49 130 101 157 75 38 148 27
208 -31 72 -69 61 -173 -28 -270 -27 -29 -125 -113 -217 -185 -173 -134 -323
-276 -375 -353 -62 -92 -108 -201 -127 -301 l-8 -48 608 0 609 0 0 165 0 165
-317 0 -318 1 45 40 c25 22 108 86 185 142 236 171 344 294 380 432 61 238
-70 450 -317 511 -76 18 -338 27 -423 14z"/>
<path d="M1290 3005 l0 -165 361 0 360 0 -44 -57 c-148 -194 -268 -415 -331
-610 -34 -107 -78 -302 -92 -410 l-7 -53 202 0 c120 0 201 4 201 9 0 6 7 63
15 128 51 390 200 724 439 980 l86 91 0 126 0 126 -595 0 -595 0 0 -165z"/>
<path d="M2650 3005 l0 -165 361 0 360 0 -44 -57 c-148 -194 -268 -415 -331
-610 -34 -107 -78 -302 -92 -410 l-7 -53 202 0 c120 0 201 4 201 9 0 6 7 63
15 128 51 390 200 724 439 980 l86 91 0 126 0 126 -595 0 -595 0 0 -165z"/>
<path d="M8255 3148 c-19 -81 -123 -754 -117 -759 4 -3 80 -16 169 -28 l162
-23 44 36 c79 65 175 83 252 47 80 -37 115 -105 115 -225 0 -124 -33 -195
-110 -233 -56 -29 -111 -29 -168 -2 -49 24 -97 89 -108 147 -6 33 -8 34 -43
29 -20 -3 -112 -14 -204 -23 l-168 -17 6 -26 c16 -71 77 -170 139 -229 110
-102 213 -139 416 -149 154 -7 261 11 368 62 294 139 377 571 154 794 -64 64
-127 98 -225 123 -104 26 -222 21 -326 -15 -63 -22 -71 -23 -71 -8 0 18 17
134 25 169 l5 22 325 0 325 0 0 165 0 165 -480 0 -480 0 -5 -22z"/>
</g>
</svg>
